<mxfile host="Electron" modified="2023-10-27T00:28:51.699Z" agent="Mozilla/5.0 (X11; Linux x86_64) AppleWebKit/537.36 (KHTML, like Gecko) draw.io/21.6.1 Chrome/112.0.5615.204 Electron/24.6.1 Safari/537.36" etag="nt2O8MYfGN2_CAWiBpLA" version="21.6.1" type="device">
  <diagram name="Page-1" id="VMeIFhNEpCKvIzZF1clo">
    <mxGraphModel dx="1434" dy="835" grid="1" gridSize="10" guides="1" tooltips="1" connect="1" arrows="1" fold="1" page="1" pageScale="1" pageWidth="827" pageHeight="1169" math="0" shadow="0">
      <root>
        <mxCell id="0" />
        <mxCell id="1" parent="0" />
        <mxCell id="dDHFS209dQYHZajUs6lA-57" value="&lt;font face=&quot;Times New Roman&quot;&gt;Motherboard&lt;/font&gt;" style="rounded=0;whiteSpace=wrap;html=1;dashed=1;verticalAlign=top;" parent="1" vertex="1">
          <mxGeometry x="360" y="40" width="500" height="380" as="geometry" />
        </mxCell>
        <mxCell id="dDHFS209dQYHZajUs6lA-56" value="&lt;font face=&quot;Times New Roman&quot;&gt;Daugtherboard&lt;/font&gt;" style="rounded=0;whiteSpace=wrap;html=1;dashed=1;verticalAlign=top;" parent="1" vertex="1">
          <mxGeometry x="100" y="60" width="180" height="120" as="geometry" />
        </mxCell>
        <mxCell id="dDHFS209dQYHZajUs6lA-55" style="edgeStyle=orthogonalEdgeStyle;rounded=0;orthogonalLoop=1;jettySize=auto;html=1;exitX=1;exitY=0.5;exitDx=0;exitDy=0;entryX=0;entryY=0.5;entryDx=0;entryDy=0;" parent="1" source="dDHFS209dQYHZajUs6lA-54" target="dDHFS209dQYHZajUs6lA-46" edge="1">
          <mxGeometry relative="1" as="geometry" />
        </mxCell>
        <mxCell id="dDHFS209dQYHZajUs6lA-54" value="&lt;font face=&quot;Times New Roman&quot;&gt;ADC&lt;/font&gt;" style="rounded=0;whiteSpace=wrap;html=1;align=center;verticalAlign=top;" parent="1" vertex="1">
          <mxGeometry x="480" y="80" width="160" height="320" as="geometry" />
        </mxCell>
        <mxCell id="dDHFS209dQYHZajUs6lA-13" style="edgeStyle=orthogonalEdgeStyle;rounded=0;orthogonalLoop=1;jettySize=auto;html=1;exitX=1;exitY=0.5;exitDx=0;exitDy=0;entryX=0;entryY=0.5;entryDx=0;entryDy=0;" parent="1" source="dDHFS209dQYHZajUs6lA-1" target="dDHFS209dQYHZajUs6lA-3" edge="1">
          <mxGeometry relative="1" as="geometry" />
        </mxCell>
        <mxCell id="dDHFS209dQYHZajUs6lA-1" value="" style="ellipse;whiteSpace=wrap;html=1;aspect=fixed;" parent="1" vertex="1">
          <mxGeometry x="120" y="120" width="40" height="40" as="geometry" />
        </mxCell>
        <mxCell id="dDHFS209dQYHZajUs6lA-2" value="" style="endArrow=none;html=1;rounded=0;" parent="1" edge="1">
          <mxGeometry width="50" height="50" relative="1" as="geometry">
            <mxPoint x="120" y="170" as="sourcePoint" />
            <mxPoint x="120" y="110" as="targetPoint" />
          </mxGeometry>
        </mxCell>
        <mxCell id="dDHFS209dQYHZajUs6lA-3" value="" style="triangle;whiteSpace=wrap;html=1;" parent="1" vertex="1">
          <mxGeometry x="200" y="110" width="60" height="60" as="geometry" />
        </mxCell>
        <mxCell id="dDHFS209dQYHZajUs6lA-41" style="edgeStyle=orthogonalEdgeStyle;rounded=0;orthogonalLoop=1;jettySize=auto;html=1;exitX=1;exitY=0.5;exitDx=0;exitDy=0;" parent="1" source="dDHFS209dQYHZajUs6lA-4" edge="1">
          <mxGeometry relative="1" as="geometry">
            <mxPoint x="520" y="140" as="targetPoint" />
          </mxGeometry>
        </mxCell>
        <mxCell id="dDHFS209dQYHZajUs6lA-4" value="" style="triangle;whiteSpace=wrap;html=1;" parent="1" vertex="1">
          <mxGeometry x="380" y="110" width="60" height="60" as="geometry" />
        </mxCell>
        <mxCell id="dDHFS209dQYHZajUs6lA-5" value="" style="pointerEvents=1;verticalLabelPosition=bottom;shadow=0;dashed=0;align=center;html=1;verticalAlign=top;shape=mxgraph.electrical.waveforms.sine_wave;" parent="1" vertex="1">
          <mxGeometry x="260" y="120" width="40" height="40" as="geometry" />
        </mxCell>
        <mxCell id="dDHFS209dQYHZajUs6lA-7" value="" style="pointerEvents=1;verticalLabelPosition=bottom;shadow=0;dashed=0;align=center;html=1;verticalAlign=top;shape=mxgraph.electrical.waveforms.sine_wave;" parent="1" vertex="1">
          <mxGeometry x="300" y="120" width="40" height="40" as="geometry" />
        </mxCell>
        <mxCell id="dDHFS209dQYHZajUs6lA-8" value="" style="pointerEvents=1;verticalLabelPosition=bottom;shadow=0;dashed=0;align=center;html=1;verticalAlign=top;shape=mxgraph.electrical.waveforms.sine_wave;" parent="1" vertex="1">
          <mxGeometry x="340" y="120" width="40" height="40" as="geometry" />
        </mxCell>
        <mxCell id="dDHFS209dQYHZajUs6lA-10" value="" style="pointerEvents=1;verticalLabelPosition=bottom;shadow=0;dashed=0;align=center;html=1;verticalAlign=top;shape=mxgraph.electrical.waveforms.sine_wave;flipH=1;" parent="1" vertex="1">
          <mxGeometry x="260" y="120" width="40" height="40" as="geometry" />
        </mxCell>
        <mxCell id="dDHFS209dQYHZajUs6lA-11" value="" style="pointerEvents=1;verticalLabelPosition=bottom;shadow=0;dashed=0;align=center;html=1;verticalAlign=top;shape=mxgraph.electrical.waveforms.sine_wave;flipH=1;" parent="1" vertex="1">
          <mxGeometry x="300" y="120" width="40" height="40" as="geometry" />
        </mxCell>
        <mxCell id="dDHFS209dQYHZajUs6lA-12" value="" style="pointerEvents=1;verticalLabelPosition=bottom;shadow=0;dashed=0;align=center;html=1;verticalAlign=top;shape=mxgraph.electrical.waveforms.sine_wave;flipH=1;" parent="1" vertex="1">
          <mxGeometry x="340" y="120" width="40" height="40" as="geometry" />
        </mxCell>
        <mxCell id="dDHFS209dQYHZajUs6lA-21" value="" style="group" parent="1" vertex="1" connectable="0">
          <mxGeometry x="520" y="120" width="60" height="40" as="geometry" />
        </mxCell>
        <mxCell id="dDHFS209dQYHZajUs6lA-16" value="" style="endArrow=none;html=1;rounded=0;" parent="dDHFS209dQYHZajUs6lA-21" edge="1">
          <mxGeometry width="50" height="50" relative="1" as="geometry">
            <mxPoint y="20" as="sourcePoint" />
            <mxPoint x="20" as="targetPoint" />
          </mxGeometry>
        </mxCell>
        <mxCell id="dDHFS209dQYHZajUs6lA-17" value="" style="endArrow=none;html=1;rounded=0;" parent="dDHFS209dQYHZajUs6lA-21" edge="1">
          <mxGeometry width="50" height="50" relative="1" as="geometry">
            <mxPoint y="20" as="sourcePoint" />
            <mxPoint x="20" y="40" as="targetPoint" />
          </mxGeometry>
        </mxCell>
        <mxCell id="dDHFS209dQYHZajUs6lA-18" value="" style="endArrow=none;html=1;rounded=0;" parent="dDHFS209dQYHZajUs6lA-21" edge="1">
          <mxGeometry width="50" height="50" relative="1" as="geometry">
            <mxPoint x="20" as="sourcePoint" />
            <mxPoint x="60" as="targetPoint" />
          </mxGeometry>
        </mxCell>
        <mxCell id="dDHFS209dQYHZajUs6lA-19" value="" style="endArrow=none;html=1;rounded=0;" parent="dDHFS209dQYHZajUs6lA-21" edge="1">
          <mxGeometry width="50" height="50" relative="1" as="geometry">
            <mxPoint x="20" y="40" as="sourcePoint" />
            <mxPoint x="60" y="40" as="targetPoint" />
          </mxGeometry>
        </mxCell>
        <mxCell id="dDHFS209dQYHZajUs6lA-20" value="" style="endArrow=none;html=1;rounded=0;" parent="dDHFS209dQYHZajUs6lA-21" edge="1">
          <mxGeometry width="50" height="50" relative="1" as="geometry">
            <mxPoint x="60" y="40" as="sourcePoint" />
            <mxPoint x="60" as="targetPoint" />
          </mxGeometry>
        </mxCell>
        <mxCell id="dDHFS209dQYHZajUs6lA-22" value="" style="group" parent="1" vertex="1" connectable="0">
          <mxGeometry x="520" y="200" width="60" height="40" as="geometry" />
        </mxCell>
        <mxCell id="dDHFS209dQYHZajUs6lA-23" value="" style="endArrow=none;html=1;rounded=0;" parent="dDHFS209dQYHZajUs6lA-22" edge="1">
          <mxGeometry width="50" height="50" relative="1" as="geometry">
            <mxPoint y="20" as="sourcePoint" />
            <mxPoint x="20" as="targetPoint" />
          </mxGeometry>
        </mxCell>
        <mxCell id="dDHFS209dQYHZajUs6lA-24" value="" style="endArrow=none;html=1;rounded=0;" parent="dDHFS209dQYHZajUs6lA-22" edge="1">
          <mxGeometry width="50" height="50" relative="1" as="geometry">
            <mxPoint y="20" as="sourcePoint" />
            <mxPoint x="20" y="40" as="targetPoint" />
          </mxGeometry>
        </mxCell>
        <mxCell id="dDHFS209dQYHZajUs6lA-25" value="" style="endArrow=none;html=1;rounded=0;" parent="dDHFS209dQYHZajUs6lA-22" edge="1">
          <mxGeometry width="50" height="50" relative="1" as="geometry">
            <mxPoint x="20" as="sourcePoint" />
            <mxPoint x="60" as="targetPoint" />
          </mxGeometry>
        </mxCell>
        <mxCell id="dDHFS209dQYHZajUs6lA-26" value="" style="endArrow=none;html=1;rounded=0;" parent="dDHFS209dQYHZajUs6lA-22" edge="1">
          <mxGeometry width="50" height="50" relative="1" as="geometry">
            <mxPoint x="20" y="40" as="sourcePoint" />
            <mxPoint x="60" y="40" as="targetPoint" />
          </mxGeometry>
        </mxCell>
        <mxCell id="dDHFS209dQYHZajUs6lA-27" value="" style="endArrow=none;html=1;rounded=0;" parent="dDHFS209dQYHZajUs6lA-22" edge="1">
          <mxGeometry width="50" height="50" relative="1" as="geometry">
            <mxPoint x="60" y="40" as="sourcePoint" />
            <mxPoint x="60" as="targetPoint" />
          </mxGeometry>
        </mxCell>
        <mxCell id="dDHFS209dQYHZajUs6lA-34" value="" style="group" parent="1" vertex="1" connectable="0">
          <mxGeometry x="520" y="320" width="60" height="40" as="geometry" />
        </mxCell>
        <mxCell id="dDHFS209dQYHZajUs6lA-35" value="" style="endArrow=none;html=1;rounded=0;" parent="dDHFS209dQYHZajUs6lA-34" edge="1">
          <mxGeometry width="50" height="50" relative="1" as="geometry">
            <mxPoint y="20" as="sourcePoint" />
            <mxPoint x="20" as="targetPoint" />
          </mxGeometry>
        </mxCell>
        <mxCell id="dDHFS209dQYHZajUs6lA-36" value="" style="endArrow=none;html=1;rounded=0;" parent="dDHFS209dQYHZajUs6lA-34" edge="1">
          <mxGeometry width="50" height="50" relative="1" as="geometry">
            <mxPoint y="20" as="sourcePoint" />
            <mxPoint x="20" y="40" as="targetPoint" />
          </mxGeometry>
        </mxCell>
        <mxCell id="dDHFS209dQYHZajUs6lA-37" value="" style="endArrow=none;html=1;rounded=0;" parent="dDHFS209dQYHZajUs6lA-34" edge="1">
          <mxGeometry width="50" height="50" relative="1" as="geometry">
            <mxPoint x="20" as="sourcePoint" />
            <mxPoint x="60" as="targetPoint" />
          </mxGeometry>
        </mxCell>
        <mxCell id="dDHFS209dQYHZajUs6lA-38" value="" style="endArrow=none;html=1;rounded=0;" parent="dDHFS209dQYHZajUs6lA-34" edge="1">
          <mxGeometry width="50" height="50" relative="1" as="geometry">
            <mxPoint x="20" y="40" as="sourcePoint" />
            <mxPoint x="60" y="40" as="targetPoint" />
          </mxGeometry>
        </mxCell>
        <mxCell id="dDHFS209dQYHZajUs6lA-39" value="" style="endArrow=none;html=1;rounded=0;" parent="dDHFS209dQYHZajUs6lA-34" edge="1">
          <mxGeometry width="50" height="50" relative="1" as="geometry">
            <mxPoint x="60" y="40" as="sourcePoint" />
            <mxPoint x="60" as="targetPoint" />
          </mxGeometry>
        </mxCell>
        <mxCell id="dDHFS209dQYHZajUs6lA-44" style="edgeStyle=orthogonalEdgeStyle;rounded=0;orthogonalLoop=1;jettySize=auto;html=1;exitX=1;exitY=0.5;exitDx=0;exitDy=0;" parent="1" edge="1">
          <mxGeometry relative="1" as="geometry">
            <mxPoint x="520" y="219.8" as="targetPoint" />
            <mxPoint x="440" y="219.8" as="sourcePoint" />
          </mxGeometry>
        </mxCell>
        <mxCell id="dDHFS209dQYHZajUs6lA-45" style="edgeStyle=orthogonalEdgeStyle;rounded=0;orthogonalLoop=1;jettySize=auto;html=1;exitX=1;exitY=0.5;exitDx=0;exitDy=0;" parent="1" edge="1">
          <mxGeometry relative="1" as="geometry">
            <mxPoint x="520" y="339.8" as="targetPoint" />
            <mxPoint x="440" y="339.8" as="sourcePoint" />
          </mxGeometry>
        </mxCell>
        <mxCell id="mQpp9cqOMYxEDiKpBseG-1" style="edgeStyle=orthogonalEdgeStyle;rounded=0;orthogonalLoop=1;jettySize=auto;html=1;exitX=1;exitY=0.5;exitDx=0;exitDy=0;" edge="1" parent="1" source="dDHFS209dQYHZajUs6lA-46">
          <mxGeometry relative="1" as="geometry">
            <mxPoint x="920" y="240" as="targetPoint" />
          </mxGeometry>
        </mxCell>
        <mxCell id="dDHFS209dQYHZajUs6lA-46" value="&lt;font face=&quot;Times New Roman&quot;&gt;STM32&lt;/font&gt;" style="rounded=0;whiteSpace=wrap;html=1;" parent="1" vertex="1">
          <mxGeometry x="720" y="80" width="120" height="320" as="geometry" />
        </mxCell>
        <mxCell id="dDHFS209dQYHZajUs6lA-47" value="&lt;font face=&quot;Times New Roman&quot;&gt;Microphone&lt;br&gt;&lt;/font&gt;" style="text;html=1;align=center;verticalAlign=middle;resizable=0;points=[];autosize=1;strokeColor=none;fillColor=none;" parent="1" vertex="1">
          <mxGeometry x="100" y="80" width="80" height="30" as="geometry" />
        </mxCell>
        <mxCell id="dDHFS209dQYHZajUs6lA-48" value="&lt;font face=&quot;Times New Roman&quot;&gt;Preamp.&lt;br&gt;&lt;/font&gt;" style="text;html=1;align=center;verticalAlign=middle;resizable=0;points=[];autosize=1;strokeColor=none;fillColor=none;" parent="1" vertex="1">
          <mxGeometry x="200" y="80" width="60" height="30" as="geometry" />
        </mxCell>
        <mxCell id="dDHFS209dQYHZajUs6lA-49" value="&lt;font face=&quot;Times New Roman&quot;&gt;Diff-amp.&lt;br&gt;&lt;/font&gt;" style="text;html=1;align=center;verticalAlign=middle;resizable=0;points=[];autosize=1;strokeColor=none;fillColor=none;" parent="1" vertex="1">
          <mxGeometry x="375" y="80" width="70" height="30" as="geometry" />
        </mxCell>
        <mxCell id="dDHFS209dQYHZajUs6lA-50" value="" style="endArrow=none;dashed=1;html=1;dashPattern=1 3;strokeWidth=2;rounded=0;" parent="1" edge="1">
          <mxGeometry width="50" height="50" relative="1" as="geometry">
            <mxPoint x="400" y="220" as="sourcePoint" />
            <mxPoint x="440" y="220" as="targetPoint" />
          </mxGeometry>
        </mxCell>
        <mxCell id="dDHFS209dQYHZajUs6lA-51" value="" style="endArrow=none;dashed=1;html=1;dashPattern=1 3;strokeWidth=2;rounded=0;" parent="1" edge="1">
          <mxGeometry width="50" height="50" relative="1" as="geometry">
            <mxPoint x="400" y="339.65999999999997" as="sourcePoint" />
            <mxPoint x="440" y="339.65999999999997" as="targetPoint" />
          </mxGeometry>
        </mxCell>
        <mxCell id="dDHFS209dQYHZajUs6lA-53" value="&lt;font style=&quot;font-size: 24px;&quot;&gt;...&lt;/font&gt;" style="text;html=1;align=center;verticalAlign=middle;resizable=0;points=[];autosize=1;strokeColor=none;fillColor=none;fontFamily=Times New Roman;rotation=90;" parent="1" vertex="1">
          <mxGeometry x="540" y="260" width="40" height="40" as="geometry" />
        </mxCell>
        <mxCell id="mQpp9cqOMYxEDiKpBseG-2" value="&lt;font face=&quot;Times New Roman&quot;&gt;USB&lt;/font&gt;" style="text;html=1;align=center;verticalAlign=middle;resizable=0;points=[];autosize=1;strokeColor=none;fillColor=none;" vertex="1" parent="1">
          <mxGeometry x="920" y="225" width="50" height="30" as="geometry" />
        </mxCell>
      </root>
    </mxGraphModel>
  </diagram>
</mxfile>
